<svg width="654" height="654" viewBox="0 0 654 654" fill="none" xmlns="http://www.w3.org/2000/svg">
<g clip-path="url(#clip0_320_7)">
<mask id="path-1-inside-1_320_7" fill="white">
<path d="M182.524 59.8576C201.501 40.8804 224.03 25.8269 248.825 15.5565C273.62 5.28609 300.195 -3.51935e-06 327.033 0C353.87 3.51935e-06 380.445 5.28611 405.24 15.5565C430.035 25.8269 452.564 40.8804 471.542 59.8576L413.72 117.679C402.336 106.295 388.821 97.265 373.947 91.1041C359.074 84.9431 343.132 81.7721 327.033 81.7721C310.933 81.7721 294.992 84.9431 280.118 91.1041C265.244 97.265 251.729 106.295 240.345 117.679L182.524 59.8576Z"/>
</mask>
<path d="M182.524 59.8576C201.501 40.8804 224.03 25.8269 248.825 15.5565C273.62 5.28609 300.195 -3.51935e-06 327.033 0C353.87 3.51935e-06 380.445 5.28611 405.24 15.5565C430.035 25.8269 452.564 40.8804 471.542 59.8576L413.72 117.679C402.336 106.295 388.821 97.265 373.947 91.1041C359.074 84.9431 343.132 81.7721 327.033 81.7721C310.933 81.7721 294.992 84.9431 280.118 91.1041C265.244 97.265 251.729 106.295 240.345 117.679L182.524 59.8576Z" stroke="black" stroke-width="163.494" mask="url(#path-1-inside-1_320_7)"/>
<mask id="path-2-inside-2_320_7" fill="white">
<path d="M472.347 222.557C502.223 222.557 531.638 229.925 557.986 244.008C584.335 258.092 606.803 278.456 623.401 303.297C639.999 328.138 650.215 356.689 653.143 386.421C656.072 416.153 651.622 446.148 640.189 473.75C628.756 501.352 610.693 525.708 587.598 544.661C564.504 563.614 537.092 576.579 507.79 582.407C478.488 588.236 448.201 586.748 419.611 578.076C391.022 569.403 365.012 553.814 343.887 532.688L395.378 481.197C408.036 493.854 423.62 503.195 440.75 508.391C457.88 513.588 476.027 514.479 493.583 510.987C511.14 507.495 527.564 499.726 541.402 488.37C555.239 477.014 566.062 462.421 572.913 445.883C579.763 429.345 582.429 411.373 580.674 393.558C578.92 375.744 572.799 358.637 562.854 343.753C552.909 328.869 539.446 316.668 523.659 308.23C507.872 299.791 490.248 295.377 472.347 295.377L472.347 222.557Z"/>
</mask>
<path d="M472.347 222.557C502.223 222.557 531.638 229.925 557.986 244.008C584.335 258.092 606.803 278.456 623.401 303.297C639.999 328.138 650.215 356.689 653.143 386.421C656.072 416.153 651.622 446.148 640.189 473.75C628.756 501.352 610.693 525.708 587.598 544.661C564.504 563.614 537.092 576.579 507.79 582.407C478.488 588.236 448.201 586.748 419.611 578.076C391.022 569.403 365.012 553.814 343.887 532.688L395.378 481.197C408.036 493.854 423.62 503.195 440.75 508.391C457.88 513.588 476.027 514.479 493.583 510.987C511.14 507.495 527.564 499.726 541.402 488.37C555.239 477.014 566.062 462.421 572.913 445.883C579.763 429.345 582.429 411.373 580.674 393.558C578.92 375.744 572.799 358.637 562.854 343.753C552.909 328.869 539.446 316.668 523.659 308.23C507.872 299.791 490.248 295.377 472.347 295.377L472.347 222.557Z" stroke="black" stroke-width="145.337" mask="url(#path-2-inside-2_320_7)"/>
<mask id="path-3-inside-3_320_7" fill="white">
<path d="M181.693 222.557C151.817 222.557 122.402 229.925 96.0536 244.008C69.7054 258.092 47.2371 278.456 30.6389 303.297C14.0407 328.138 3.825 356.689 0.896647 386.421C-2.03171 416.153 2.41768 446.148 13.8507 473.75C25.2837 501.352 43.3475 525.708 66.4419 544.661C89.5363 563.614 116.948 576.579 146.25 582.407C175.552 588.236 205.839 586.748 234.429 578.076C263.018 569.403 289.028 553.814 310.153 532.688L258.662 481.197C246.004 493.854 230.42 503.195 213.29 508.391C196.16 513.588 178.013 514.479 160.457 510.987C142.9 507.495 126.476 499.726 112.638 488.37C98.801 477.014 87.9778 462.421 81.1275 445.883C74.2772 429.345 71.6113 411.373 73.3659 393.558C75.1205 375.744 81.2414 358.637 91.1864 343.753C101.131 328.869 114.594 316.668 130.381 308.23C146.168 299.791 163.792 295.377 181.693 295.377L181.693 222.557Z"/>
</mask>
<path d="M181.693 222.557C151.817 222.557 122.402 229.925 96.0536 244.008C69.7054 258.092 47.2371 278.456 30.6389 303.297C14.0407 328.138 3.825 356.689 0.896647 386.421C-2.03171 416.153 2.41768 446.148 13.8507 473.75C25.2837 501.352 43.3475 525.708 66.4419 544.661C89.5363 563.614 116.948 576.579 146.25 582.407C175.552 588.236 205.839 586.748 234.429 578.076C263.018 569.403 289.028 553.814 310.153 532.688L258.662 481.197C246.004 493.854 230.42 503.195 213.29 508.391C196.16 513.588 178.013 514.479 160.457 510.987C142.9 507.495 126.476 499.726 112.638 488.37C98.801 477.014 87.9778 462.421 81.1275 445.883C74.2772 429.345 71.6113 411.373 73.3659 393.558C75.1205 375.744 81.2414 358.637 91.1864 343.753C101.131 328.869 114.594 316.668 130.381 308.23C146.168 299.791 163.792 295.377 181.693 295.377L181.693 222.557Z" stroke="black" stroke-width="145.337" mask="url(#path-3-inside-3_320_7)"/>
<path fill-rule="evenodd" clip-rule="evenodd" d="M327 449.625L122.625 40.875H0L327 654L654 40.875H531.375L327 449.625Z" fill="black"/>
<path fill-rule="evenodd" clip-rule="evenodd" d="M327 367.875L163.5 40.875H245.25L327 204.374L408.75 40.875H490.5L327 367.875Z" fill="black"/>
</g>
<defs>
<clipPath id="clip0_320_7">
<rect width="654" height="654" fill="white"/>
</clipPath>
</defs>
</svg>
